# xmcd
#
# Track frame offsets:
#	150
#	19717
#	37903
#	50821
#	64185
#	84782
#	96808
#	110913
#	121142
#	136955
#	149091
#	163391
#	181578
#	198318
#	212794
#	229586
#	242607
#	253126
#	269827
#	283929
#	300538
#	313347
#	328665
#
# Disc length: 4755 seconds
#
# Revision: 1
# Processed by: cddbd v1.5.2PL0 Copyright (c) Steve Scherf et al.
# Submitted via: EZCDAudioConverter 2.1.7.1
#
DISCID=5e129117
DTITLE=V/A - Another Splash Of Colour 1/3
DYEAR=2016
DGENRE=
TTITLE0=High Tide - Dancing In My Mind
TTITLE1=Mood Six - Just Like A Dream
TTITLE2=Miles Over Matter - Something's Happening Here
TTITLE3=Robyn Hitchcock - It's A Mystic Trip
TTITLE4=The Barracudas - Watching The World Go By
TTITLE5=Nick Nicely - 49 Cigars
TTITLE6=The Times - I Helped Patrick McGoohan Escape [Single]
TTITLE7=The Attractions - Slow Patience
TTITLE8=The Earwigs - Keep Your Voice Down
TTITLE9=Charlie Harper - Night Of The Jackal
TTITLE10=Marble Staircase - The Long Weekend
TTITLE11=Blue Orchids - Work
TTITLE12=The Silence - Love Letters
TTITLE13=Knox - Gigolo Aunt
TTITLE14=The Chicanes - Further Thoughts
TTITLE15=The Vandells - I See Everything
TTITLE16=Kimberley Rew - Stomping All Over The World
TTITLE17=Delmontes - Don't Cry Your Tears
TTITLE18=Monochrome Set - On The Thirteenth Day
TTITLE19=Future Daze - Connect
TTITLE20=Soft Boys - Only The Stones Remain
TTITLE21=Firmament and The Elements - The Festival Of Frothy Muggament
TTITLE22=Von Trap Family - No Reflexes
EXTD=
EXTT0=
EXTT1=
EXTT2=
EXTT3=
EXTT4=
EXTT5=
EXTT6=
EXTT7=
EXTT8=
EXTT9=
EXTT10=
EXTT11=
EXTT12=
EXTT13=
EXTT14=
EXTT15=
EXTT16=
EXTT17=
EXTT18=
EXTT19=
EXTT20=
EXTT21=
EXTT22=
PLAYORDER=
